<svg xmlns="http://www.w3.org/2000/svg" width="45" height="45" viewBox="0 0 90 90" fill="none">
  <path
    d="M44.993 89.99c24.845 0 44.986-20.145 44.986-44.995C89.979 20.145 69.838 0 44.993 0 20.147 0 .006 20.145.006 44.995c0 24.85 20.141 44.995 44.987 44.995z"
    fill="#FFC800"
  ></path>
  <path
    d="M64.353 78.518c-15.278 8.818-31.847 10.398-42.43 5.116 13.55 8.076 30.947 8.774 45.57.332 14.624-8.45 22.72-23.868 22.503-39.643C89.28 56.134 79.63 69.7 64.353 78.518zM50.698 3.3c3.097 5.36-4.389 15.487-16.726 22.602S9.132 34.45 6.034 29.08a4.914 4.914 0 01-.34-.82c-.803-2.498.157-5.728 2.47-9.132.374-.533.758-1.057 1.15-1.572A44.722 44.722 0 0122.499 6.024 44.767 44.767 0 0139.076.375a26.184 26.184 0 011.937-.21c4.1-.305 7.373.481 9.135 2.42.21.235.393.47.55.715z"
    fill="#000"
  ></path>
  <path
    d="M69.823 9.105c5.41 9.368-5.505 25.79-24.369 36.684C26.591 56.684 6.907 57.924 1.506 48.557c-.899-1.563-1.379-3.3-1.474-5.169a44.552 44.552 0 003.367 18.77c.376.908.786 1.807 1.222 2.698.017.035.044.078.061.113 1.632 2.82 4.04 5.038 7.041 6.644 10.584 5.666 28.479 3.719 45.213-5.945 16.726-9.665 27.362-24.183 27.755-36.178.113-3.387-.593-6.574-2.208-9.393a42.344 42.344 0 00-1.92-2.672A44.69 44.69 0 0066.169 5.29c1.526 1.004 2.765 2.27 3.655 3.815 0 0 .01.01.01.018l-.01-.018z"
    fill="#000"
  ></path>
  <path
    d="M45.002 89.99c24.845 0 44.986-20.145 44.986-44.995C89.988 20.145 69.847 0 45.002 0 20.156 0 .015 20.145.015 44.995c0 24.85 20.141 44.995 44.987 44.995z"
    fill="url(#prefix__paint0_radial)"
  ></path>
  <defs>
    <radialGradient
      id="prefix__paint0_radial"
      cx="0"
      cy="0"
      r="1"
      gradientUnits="userSpaceOnUse"
      gradientTransform="matrix(44.9854 0 0 45.0112 44.997 44.999)"
    >
      <stop offset="0.5" stop-color="#fff" stop-opacity="0"></stop>
      <stop offset="1" stop-color="#fff" stop-opacity="0.35"></stop>
    </radialGradient>
  </defs>
</svg>
