<svg xmlns="http://www.w3.org/2000/svg" viewBox="0 0 55 55" fill="#00B956">
  <title>megafon-logo-green</title>
  <g>
    <path d="M30.3.7v27.8c0 1.3-1 2.2-2.2 2.2h-3.3c-.2 0-.3.2-.3.3v23.3c.8 0 1.6.2 2.5.2 14.9 0 27-12.1 27-27C54 13.8 43.7 2.3 30.3.7zm-.6 41.6c-1.9 0-3.3-1.6-3.3-3.3 0-1.9 1.6-3.3 3.3-3.3 1.9 0 3.3 1.6 3.3 3.3.2 1.8-1.4 3.3-3.3 3.3zm7.9 0c-1.9 0-3.3-1.6-3.3-3.3 0-1.9 1.6-3.3 3.3-3.3 1.9 0 3.3 1.6 3.3 3.3s-1.3 3.3-3.3 3.3zm8 0c-1.9 0-3.3-1.6-3.3-3.3 0-1.9 1.6-3.3 3.3-3.3 1.9 0 3.3 1.6 3.3 3.3s-1.4 3.3-3.3 3.3z"></path>
    <path d="M27 .6C12.1.6 0 12.7 0 27.6c0 13.1 9.1 23.8 21.3 26.3V29.6c0-1.1 1-2 2-2.2H26.6c.2 0 .3-.2.3-.3L27 .6zm-5.2 22.2c-1.9 0-3.3-1.6-3.3-3.3 0-1.9 1.6-3.3 3.3-3.3 1.9 0 3.3 1.6 3.3 3.3s-1.5 3.3-3.3 3.3z"></path>
  </g>
</svg>
